-
http:// www. Speed. Cd       
http:// www. Speed. Cd       the fast  and The Hottest Private Tracker on the net

Please Seed back to make the speed Faster!!!

and don't forget to visit      ...... www. Speed. Cd..........
-[img]http://img710.imageshack.us/img710/1918/theritemovieposterz.jpg[/img]

[color=blue][size=5][b]The.Rite.2011.DVDRip.HC-SUBS.XVID.AC3.HQ.Hive-CM8[/b][/size][/color]



[b]Thx Hive

CM8 Doing It Right The First Time :D

You should wait
For Hive-CM8

Source R1 DVD-R

Encode: dvd is not the sharpest, but i tried to get the best out of it, added sharpness,brightness,chroma,rgb and denoise and hardcoded the subs within
Video needs a bit more bitrate as normally needed, because of darkness and rain scenes, looks better this way

Video: 720x304 @bitrate 2300 2pass
Audio: English 5.1 @384
Subs: yes english hardcoded for foreign parts only
Bonus: 12 mins deleted scenes are attached in an additional avi, for those who want to see them(@bitrate 1400)
Sample: yes included[/b]


[url]http://www.imdb.com/title/tt1161864/[/url]


General
Complete name                    : The.Rite.2011.DVDRip.HC-SUBS.XVID.AC3.HQ.Hive-CM8.avi
Format                           : AVI
Format/Info                      : Audio Video Interleave
Format profile                   : OpenDML
File size                        : 2.17 GiB
Duration                         : 1h 53mn
Overall bit rate                 : 2 735 Kbps
Writing application              : AVI-Mux GUI 1.17.7, Aug  8 2006  20:59:17

Video
ID                               : 0
Format                           : MPEG-4 Visual
Format profile                   : Advanced Simple@L5
Format settings, BVOP            : Yes
Format settings, QPel            : Yes
Format settings, GMC             : No warppoints
Format settings, Matrix          : Default (H.263)
Muxing mode                      : Packed bitstream
Codec ID                         : XVID
Codec ID/Hint                    : XviD
Duration                         : 1h 53mn
Bit rate                         : 2 345 Kbps
Width                            : 720 pixels
Height                           : 304 pixels
Display aspect ratio             : 2.35:1
Frame rate                       : 23.976 fps
Color space                      : YUV
Chroma subsampling               : 4:2:0
Bit depth                        : 8 bits
Scan type                        : Progressive
Bits/(Pixel*Frame)               : 0.447
Stream size                      : 1.86 GiB (86%)
Writing library                  : XviD 1.2.1 (UTC 2008-12-04)

Audio
ID                               : 1
Format                           : AC-3
Format/Info                      : Audio Coding 3
Mode extension                   : CM (complete main)
Codec ID                         : 2000
Duration                         : 1h 53mn
Bit rate mode                    : Constant
Bit rate                         : 384 Kbps
Channel(s)                       : 6 channels
Channel positions                : Front: L C R, Side: L R, LFE
Sampling rate                    : 48.0 KHz
Bit depth                        : 16 bits
Stream size                      : 312 MiB (14%)
Alignment                        : Aligned on interleaves
Interleave, duration             : 64 ms (1.53 video frames)
Interleave, preload duration     : 192 ms



Anthony Hopkins	 ... 	Father Lucas Trevant
Colin O'Donoghue	... 	Michael Kovak
Alice Braga	... 	Angeline
Ciaran Hinds	... 	Father Xavier
Toby Jones	... 	Father Matthew
Rutger Hauer	... 	Istvan Kovak
Marta Gastini	... 	Rosaria
Maria Grazia Cucinotta	... 	Aunt Andria



An American seminary student travels to Italy to take an exorcism course. 



[img]http://img9.imageshack.us/img9/8717/ririu.png[/img]
[img]http://img220.imageshack.us/img220/4479/ririri.png[/img]
[img]http://img821.imageshack.us/img821/4534/riririri.png[/img]
[img]http://img151.imageshack.us/img151/4291/ririririrrii.png[/img]
[img]http://img685.imageshack.us/img685/3931/riririrrii.png[/img]
[img]http://img860.imageshack.us/img860/804/rirriiriririrrii.png[/img]
[img]http://img824.imageshack.us/img824/5001/rirriiririrrii.png[/img]
[img]http://img690.imageshack.us/img690/4260/rirrriiiriririrrii.png[/img]



ViSiON,LUSi,SANTi,MAGNET,THC,T0XiCiNK,LKRG,IMAGiNE,WBZ,FLAWL3SS,NOVA
Vik,Rapeseed,D2U,SAFC,goldadvance,MEMORY100,KaN1vE,Unevano,Pinnz,Wayne,Mr Hive
and all P2P groups 
Great Work Guys :D

CM8@hushmail.com